<svg xmlns="http://www.w3.org/2000/svg" version="1.1" xmlns:xlink="http://www.w3.org/1999/xlink" xmlns:svgjs="http://svgjs.dev/svgjs" width="1500" height="935" viewBox="0 0 1500 935"><g transform="matrix(1,0,0,1,-0.9090909090909918,0.3785425101214628)"><svg viewBox="0 0 396 247" data-background-color="#ffffff" preserveAspectRatio="xMidYMid meet" height="935" width="1500" xmlns="http://www.w3.org/2000/svg" xmlns:xlink="http://www.w3.org/1999/xlink"><g id="tight-bounds" transform="matrix(1,0,0,1,0.2400000000000091,-0.09999999999999432)"><svg viewBox="0 0 395.52 247.2" height="247.2" width="395.52"><g><svg></svg></g><g><svg viewBox="0 0 395.52 247.2" height="247.2" width="395.52"><g transform="matrix(1,0,0,1,75.54432,86.0541463315536)"><svg viewBox="0 0 244.43135999999998 75.0917073368928" height="75.0917073368928" width="244.43135999999998"><g><svg viewBox="0 0 244.43135999999998 75.0917073368928" height="75.0917073368928" width="244.43135999999998"><g><svg viewBox="0 0 244.43135999999998 75.0917073368928" height="75.0917073368928" width="244.43135999999998"><g><svg viewBox="0 0 244.43135999999998 75.0917073368928" height="75.0917073368928" width="244.43135999999998"><g id="textblocktransform"><svg viewBox="0 0 244.43135999999998 75.0917073368928" height="75.0917073368928" width="244.43135999999998" id="textblock"><g><svg viewBox="0 0 244.43135999999998 40.50087878646441" height="40.50087878646441" width="244.43135999999998"><g transform="matrix(1,0,0,1,0,0)"><svg width="244.43135999999998" viewBox="4.574999999999999 -35.25 214.24 35.5" height="40.50087878646441" data-palette-color="#5a5353"><path d="M12.25-31.15L12.25-31.15 12.25-4.3Q12.25-2.8 12.4-2.13 12.55-1.45 13.3-1.28 14.05-1.1 15.85-0.95L15.85-0.95Q15.9-0.45 15.85 0.05L15.85 0.05Q14.75 0.05 13 0 11.25-0.05 10.25-0.05L10.25-0.05Q9.15-0.05 7.45 0 5.75 0.05 4.6 0.05L4.6 0.05Q4.55-0.45 4.6-0.95L4.6-0.95Q6.35-1.1 7.13-1.25 7.9-1.4 8.08-1.98 8.25-2.55 8.25-3.85L8.25-3.85 8.25-30.7Q8.25-32.2 8.05-32.85 7.85-33.5 7.1-33.73 6.35-33.95 4.6-34.05L4.6-34.05Q4.55-34.55 4.6-35.05L4.6-35.05Q5.35-35.05 6.43-35.02 7.5-35 8.55-34.98 9.6-34.95 10.3-34.95L10.3-34.95Q11-34.95 12.03-34.98 13.05-35 14.1-35.02 15.15-35.05 15.85-35.05L15.85-35.05Q15.9-34.55 15.85-34.05L15.85-34.05Q14.1-33.9 13.35-33.75 12.6-33.6 12.43-33.05 12.25-32.5 12.25-31.15ZM54.75-35.05L54.75-35.05Q54.8-34.55 54.75-34.05L54.75-34.05Q52.95-33.95 52.07-33.7 51.2-33.45 50.7-32.63 50.2-31.8 49.5-29.95L49.5-29.95 38.25-0.05Q37.9 0.1 37.32 0.18 36.75 0.25 36.35 0.25L36.35 0.25 25-30.25Q24.35-32 23.9-32.75 23.45-33.5 22.62-33.73 21.8-33.95 19.95-34.05L19.95-34.05Q19.9-34.55 19.95-35.05L19.95-35.05Q21.25-35.05 23-35 24.75-34.95 26.1-34.95L26.1-34.95Q27.5-34.95 28.87-35 30.25-35.05 31.65-35.05L31.65-35.05Q31.7-34.55 31.65-34.05L31.65-34.05Q29.65-33.9 29.05-33.73 28.45-33.55 28.45-32.85L28.45-32.85Q28.45-32.6 28.55-32.23 28.65-31.85 28.85-31.3L28.85-31.3 38.45-5.05 47.75-30.75Q48.25-32.1 48.25-32.7L48.25-32.7Q48.25-33.5 47.47-33.7 46.7-33.9 44.75-34.05L44.75-34.05Q44.7-34.55 44.75-35.05L44.75-35.05Q46-35.05 47.32-35 48.65-34.95 49.9-34.95L49.9-34.95Q50.9-34.95 52.27-35 53.65-35.05 54.75-35.05ZM49.75 0.05L49.75 0.05Q49.7-0.45 49.75-0.95L49.75-0.95Q51.4-1.1 52.22-1.33 53.05-1.55 53.55-2.38 54.05-3.2 54.7-5.05L54.7-5.05 65.8-34.95Q66.2-35.1 66.77-35.18 67.34-35.25 67.7-35.25L67.7-35.25 78.9-4.75Q79.55-3 79.97-2.25 80.4-1.5 81.2-1.3 82-1.1 83.69-0.95L83.69-0.95Q83.75-0.45 83.69 0.05L83.69 0.05Q82.4 0.05 80.77 0 79.15-0.05 77.8-0.05L77.8-0.05Q76.4-0.05 75.17 0 73.95 0.05 72.55 0.05L72.55 0.05Q72.5-0.45 72.55-0.95L72.55-0.95Q74.3-1.1 74.87-1.28 75.45-1.45 75.45-2.15L75.45-2.15Q75.45-2.4 75.34-2.78 75.25-3.15 75.05-3.7L75.05-3.7 71.59-13.35 59.7-13.35 56.45-4.25Q55.95-2.9 55.95-2.3L55.95-2.3Q55.95-1.5 56.7-1.3 57.45-1.1 59.15-0.95L59.15-0.95Q59.2-0.45 59.15 0.05L59.15 0.05Q57.9 0.05 56.72 0 55.55-0.05 54.3-0.05L54.3-0.05Q53.3-0.05 52.07 0 50.84 0.05 49.75 0.05ZM65.59-29.95L60.25-14.9 71-14.9 65.59-29.95ZM116.79 0.25L116.79 0.25 93.04-30.5 93.04-5.2Q93.04-3.8 93.12-3.08 93.19-2.35 93.54-1.95L93.54-1.95Q93.94-1.6 94.69-1.33 95.44-1.05 96.84-0.95L96.84-0.95Q96.89-0.45 96.84 0.05L96.84 0.05Q95.74 0.05 94.42 0 93.09-0.05 92.19-0.05L92.19-0.05Q91.29-0.05 89.97 0 88.64 0.05 87.59 0.05L87.59 0.05Q87.54-0.45 87.59-0.95L87.59-0.95Q89.34-1.15 90.09-1.4 90.84-1.65 91.02-2.38 91.19-3.1 91.19-4.75L91.19-4.75 91.19-29.6Q91.19-31.55 90.99-32.43 90.79-33.3 89.97-33.6 89.14-33.9 87.29-34.1L87.29-34.1Q87.24-34.55 87.29-35.05L87.29-35.05Q88.44-35.05 89.72-35 90.99-34.95 92.24-34.95L92.24-34.95Q92.39-34.95 93.22-34.95 94.04-34.95 94.69-35L94.69-35 116.99-6.05 116.99-29.75Q116.99-31.1 116.94-31.88 116.89-32.65 116.49-33L116.49-33Q115.74-33.85 112.79-34.05L112.79-34.05Q112.74-34.55 112.79-35L112.79-35Q113.84-35 115.39-34.98 116.94-34.95 117.84-34.95L117.84-34.95Q118.74-34.95 120.07-34.98 121.39-35 122.49-35L122.49-35Q122.54-34.55 122.49-34.05L122.49-34.05Q120.74-33.85 119.97-33.58 119.19-33.3 119.02-32.58 118.84-31.85 118.84-30.2L118.84-30.2 118.84 0.05Q118.49 0.15 117.87 0.2 117.24 0.25 116.79 0.25ZM130.54 0.05L130.54 0.05Q130.49-0.45 130.54-0.95L130.54-0.95Q132.24-1.1 132.99-1.28 133.74-1.45 133.91-2 134.09-2.55 134.09-3.85L134.09-3.85 134.09-30.7Q134.09-32.2 133.89-32.85 133.69-33.5 132.97-33.73 132.24-33.95 130.54-34.05L130.54-34.05Q130.49-34.55 130.54-35.05L130.54-35.05Q131.79-35.05 132.66-35.02 133.54-35 134.72-34.98 135.89-34.95 137.94-34.95L137.94-34.95Q140.09-34.95 142.29-34.98 144.49-35 146.39-35 148.29-35 149.54-35.02 150.79-35.05 150.99-35.05L150.99-35.05Q151.29-32.2 151.84-29L151.84-29Q151.29-28.95 150.84-29L150.84-29Q150.44-30.35 149.99-31.18 149.54-32 149.04-32.45L149.04-32.45Q148.39-33.05 147.42-33.25 146.44-33.45 144.99-33.45L144.99-33.45 138.09-33.45 138.09-18.85 143.34-18.85Q145.09-18.85 145.94-19.05 146.79-19.25 147.14-20.08 147.49-20.9 147.74-22.75L147.74-22.75Q148.29-22.8 148.79-22.75L148.79-22.75Q148.79-22.4 148.74-21.03 148.69-19.65 148.69-17.95L148.69-17.95Q148.69-16.4 148.74-15.03 148.79-13.65 148.79-13.2L148.79-13.2Q148.34-13.15 147.74-13.2L147.74-13.2Q147.54-15.2 147.19-16.03 146.84-16.85 146.04-17.05 145.24-17.25 143.64-17.25L143.64-17.25 138.09-17.25 138.09-1.55 144.74-1.55Q146.54-1.55 147.81-1.78 149.09-2 149.79-2.7L149.79-2.7Q150.29-3.2 150.87-4.3 151.44-5.4 152.04-6.9L152.04-6.9Q152.49-6.95 152.99-6.9L152.99-6.9Q152.59-4.9 152.31-3.05 152.04-1.2 151.89 0L151.89 0Q150.24 0 148.09 0 145.94 0 143.74-0.03 141.54-0.05 139.74-0.05 137.94-0.05 136.99-0.05L136.99-0.05Q135.29-0.05 134.22-0.03 133.14 0 132.34 0.03 131.54 0.05 130.54 0.05ZM160.94 0.05L160.94 0.05Q160.89-0.45 160.94-0.95L160.94-0.95Q162.64-1.1 163.39-1.28 164.14-1.45 164.31-2 164.49-2.55 164.49-3.85L164.49-3.85 164.49-30.7Q164.49-32.2 164.29-32.85 164.09-33.5 163.36-33.73 162.64-33.95 160.94-34.05L160.94-34.05Q160.89-34.55 160.94-35.05L160.94-35.05Q162.09-35.05 163.79-35 165.49-34.95 166.49-34.95L166.49-34.95Q167.14-34.95 168.19-34.98 169.24-35 170.31-35.02 171.39-35.05 172.09-35.05L172.09-35.05Q172.14-34.55 172.09-34.05L172.09-34.05Q170.34-33.9 169.59-33.75 168.84-33.6 168.66-33.05 168.49-32.5 168.49-31.15L168.49-31.15 168.49-4.5Q168.49-3.25 168.49-2.53 168.49-1.8 168.54-1.55L168.54-1.55 175.84-1.55Q177.59-1.55 178.69-1.8 179.79-2.05 180.44-2.8L180.44-2.8Q180.99-3.4 181.61-4.58 182.24-5.75 182.74-7.45L182.74-7.45Q183.19-7.5 183.64-7.45L183.64-7.45Q183.24-5.2 182.91-3.2 182.59-1.2 182.39 0L182.39 0Q180.04 0 177.26-0.03 174.49-0.05 171.71-0.05 168.94-0.05 166.59-0.05L166.59-0.05Q165.89-0.05 164.84-0.03 163.79 0 162.74 0.03 161.69 0.05 160.94 0.05ZM184.84 0.05L184.84 0.05Q184.79-0.45 184.84-0.95L184.84-0.95Q186.49-1.1 187.31-1.33 188.14-1.55 188.64-2.38 189.14-3.2 189.79-5.05L189.79-5.05 200.89-34.95Q201.29-35.1 201.86-35.18 202.44-35.25 202.79-35.25L202.79-35.25 213.99-4.75Q214.64-3 215.06-2.25 215.49-1.5 216.29-1.3 217.09-1.1 218.79-0.95L218.79-0.95Q218.84-0.45 218.79 0.05L218.79 0.05Q217.49 0.05 215.86 0 214.24-0.05 212.89-0.05L212.89-0.05Q211.49-0.05 210.26 0 209.04 0.05 207.64 0.05L207.64 0.05Q207.59-0.45 207.64-0.95L207.64-0.95Q209.39-1.1 209.96-1.28 210.54-1.45 210.54-2.15L210.54-2.15Q210.54-2.4 210.44-2.78 210.34-3.15 210.14-3.7L210.14-3.7 206.69-13.35 194.79-13.35 191.54-4.25Q191.04-2.9 191.04-2.3L191.04-2.3Q191.04-1.5 191.79-1.3 192.54-1.1 194.24-0.95L194.24-0.95Q194.29-0.45 194.24 0.05L194.24 0.05Q192.99 0.05 191.81 0 190.64-0.05 189.39-0.05L189.39-0.05Q188.39-0.05 187.16 0 185.94 0.05 184.84 0.05ZM200.69-29.95L195.34-14.9 206.09-14.9 200.69-29.95Z" opacity="1" transform="matrix(1,0,0,1,0,0)" fill="#5a5353" class="wordmark-text-0" data-fill-palette-color="primary" id="text-0"></path></svg></g></svg></g><g transform="matrix(1,0,0,1,0,50.06216424685778)"><svg viewBox="0 0 244.43135999999998 25.029543090035006" height="25.029543090035006" width="244.43135999999998"><g transform="matrix(1,0,0,1,0,0)"><svg width="244.43135999999998" viewBox="0.3 -25.45 325.69 33.35" height="25.029543090035006" data-palette-color="#5a5353"><path d="M0.5 1.2L0.5 1.2Q0.3 1.2 0.3 1L0.3 1Q0.3 0.6 1.23-0.7 2.15-2 3.58-3.7 5-5.4 6.48-7.1 7.95-8.8 9.13-10.08 10.3-11.35 10.65-11.75L10.65-11.75Q9.45-11.6 7.98-11.25 6.5-10.9 5.18-10.25 3.85-9.6 3.15-8.5L3.15-8.5Q2.75-7.95 2.75-7.25L2.75-7.25Q2.75-6.55 3.13-6.25 3.5-5.95 3.5-5.7L3.5-5.7Q3.5-5.6 3.2-5.6L3.2-5.6Q2.25-5.6 1.68-6.58 1.1-7.55 1.1-8.4L1.1-8.4Q1.1-8.95 1.25-9.4L1.25-9.4Q1.8-11.1 3.15-12.13 4.5-13.15 6.3-13.68 8.1-14.2 9.93-14.35 11.75-14.5 13.25-14.5L13.25-14.5Q15.7-17 18.3-19.45 20.9-21.9 23.8-23.85L23.8-23.85Q24.85-24.55 26.1-25 27.35-25.45 28.65-25.45L28.65-25.45Q30.05-25.45 31.1-24.75 32.15-24.05 32.15-22.5L32.15-22.5Q32.15-21.35 31.63-20.23 31.1-19.1 30.5-18.15L30.5-18.15Q30.15-17.6 29.33-16.2 28.5-14.8 27.4-12.95 26.3-11.1 25.15-9.08 24-7.05 23.03-5.23 22.05-3.4 21.45-2.08 20.85-0.75 20.85-0.25L20.85-0.25Q20.85-0.1 20.9 0L20.9 0Q20.3 0.3 19.5 0.3L19.5 0.3Q18.55 0.3 18.32-0.25 18.1-0.8 18.1-1.65L18.1-1.65Q18.1-2.4 18.57-3.58 19.05-4.75 19.73-6.03 20.4-7.3 21.08-8.45 21.75-9.6 22.2-10.35L22.2-10.35Q21.85-10.85 20.98-11.18 20.1-11.5 18.98-11.7 17.85-11.9 16.85-12 15.85-12.1 15.3-12.1L15.3-12.1Q14.5-12.1 13.7-12.05 12.9-12 12.1-11.9L12.1-11.9Q10.2-9.9 8.35-7.8 6.5-5.7 4.75-3.55L4.75-3.55Q3.9-2.55 3.05-1.45 2.2-0.35 1.3 0.65L1.3 0.65Q1.15 0.8 0.95 1 0.75 1.2 0.5 1.2ZM22.6-11L22.6-11Q22.95-11.6 23.68-12.83 24.4-14.05 25.28-15.53 26.15-17 26.95-18.48 27.75-19.95 28.33-21.13 28.9-22.3 29-22.8L29-22.8Q29.25-23.8 28.6-24.05 27.95-24.3 27.45-24.3L27.45-24.3Q26.65-24.3 25.7-23.9 24.75-23.5 24.1-23.05L24.1-23.05Q21.5-21.2 19.1-18.98 16.7-16.75 14.5-14.45L14.5-14.45Q15.3-14.4 16.57-14.23 17.85-14.05 19.18-13.68 20.5-13.3 21.48-12.65 22.45-12 22.6-11ZM42 0.2L42 0.2Q41 0.2 40.37-0.4 39.75-1 39.75-2L39.75-2Q39.75-3 40.37-4.45 41-5.9 41.9-7.5 42.8-9.1 43.7-10.53 44.6-11.95 45.15-12.85L45.15-12.85Q44.8-12.7 44.3-12.7L44.3-12.7Q43.75-12.7 43.15-12.88 42.55-13.05 42-13.25L42-13.25Q41.85-13 41.27-12.18 40.7-11.35 39.92-10.28 39.15-9.2 38.35-8.2 37.55-7.2 36.97-6.53 36.4-5.85 36.2-5.85L36.2-5.85Q36.05-5.85 36.05-6L36.05-6Q36.05-6.1 36.2-6.25L36.2-6.25Q36.75-6.95 37.32-7.6 37.9-8.25 38.45-8.95L38.45-8.95Q39.3-10 40.05-11.15 40.8-12.3 41.4-13.55L41.4-13.55Q41.1-13.75 40.6-14.15 40.1-14.55 40.1-14.95L40.1-14.95Q40.1-15.5 40.75-16.03 41.4-16.55 42.2-16.95 43-17.35 43.4-17.55L43.4-17.55Q43.6-17.6 44.32-17.93 45.05-18.25 45.1-18.25L45.1-18.25Q45.3-18.25 45.3-18.05L45.3-18.05Q45.3-18 44.67-17.43 44.05-16.85 43.42-16.05 42.8-15.25 42.8-14.45L42.8-14.45Q42.8-13.75 43.4-13.45 44-13.15 44.6-13.15L44.6-13.15Q45.15-13.15 45.5-13.35L45.5-13.35Q45.65-13.6 45.9-13.6L45.9-13.6Q46.3-13.6 46.9-13.48 47.5-13.35 48-13.08 48.5-12.8 48.5-12.3L48.5-12.3Q48.5-11.95 48.3-11.63 48.1-11.3 47.85-11.05L47.85-11.05Q47.35-10.45 46.37-9.28 45.4-8.1 44.37-6.7 43.35-5.3 42.65-4.05 41.95-2.8 41.95-2.1L41.95-2.1Q41.95-1.6 42.3-1.28 42.65-0.95 43.15-0.95L43.15-0.95Q43.95-0.95 45-1.73 46.05-2.5 47.12-3.63 48.2-4.75 49.15-5.85 50.1-6.95 50.75-7.73 51.4-8.5 51.5-8.5L51.5-8.5Q51.7-8.5 51.7-8.3L51.7-8.3Q51.7-8.2 51.2-7.6 50.7-7 49.92-6.13 49.15-5.25 48.32-4.38 47.5-3.5 46.9-2.85 46.3-2.2 46.1-2.05L46.1-2.05Q45.3-1.3 44.22-0.55 43.15 0.2 42 0.2ZM59.44 0.2L59.44 0.2Q58.54 0.2 57.87-0.33 57.19-0.85 57.19-1.8L57.19-1.8Q57.19-2.65 57.82-4.1 58.44-5.55 59.32-7.2 60.19-8.85 61.04-10.25 61.89-11.65 62.39-12.45L62.39-12.45 60.44-12.45 60.74-12.95 62.69-12.95Q63.39-14.1 64.07-15.25 64.74-16.4 65.54-17.5L65.54-17.5Q65.99-18.15 66.52-18.73 67.04-19.3 67.89-19.3L67.89-19.3Q68.19-19.3 68.89-19.13 69.59-18.95 70.22-18.7 70.84-18.45 70.89-18.15L70.89-18.15Q70.14-17.9 69.17-16.88 68.19-15.85 67.34-14.73 66.49-13.6 66.04-12.95L66.04-12.95 68.34-12.95 68.04-12.45 65.69-12.45Q65.19-11.8 64.22-10.38 63.24-8.95 62.19-7.3 61.14-5.65 60.42-4.23 59.69-2.8 59.69-2.05L59.69-2.05Q59.69-1.05 60.79-1.05L60.79-1.05Q61.54-1.05 62.54-1.8 63.54-2.55 64.59-3.65 65.64-4.75 66.59-5.88 67.54-7 68.19-7.75 68.84-8.5 68.94-8.5L68.94-8.5Q69.09-8.5 69.09-8.3L69.09-8.3Q69.09-8.25 68.67-7.73 68.24-7.2 67.79-6.7 67.34-6.2 67.19-6.05L67.19-6.05Q66.54-5.3 65.67-4.25 64.79-3.2 63.74-2.18 62.69-1.15 61.59-0.48 60.49 0.2 59.44 0.2ZM103.48 0.2L103.48 0.2Q102.53 0.2 101.88-0.4 101.23-1 101.23-2L101.23-2Q101.23-3.05 101.81-4.38 102.38-5.7 102.83-6.6L102.83-6.6Q102.23-5.85 101.28-4.73 100.33-3.6 99.23-2.5 98.13-1.4 96.98-0.68 95.83 0.05 94.78 0.05L94.78 0.05Q93.68 0.05 93.21-0.75 92.73-1.55 92.73-2.5L92.73-2.5Q92.73-3.1 92.88-3.7L92.88-3.7Q93.23-5 94.23-6.43 95.23-7.85 96.56-9.18 97.88-10.5 99.28-11.65 100.68-12.8 101.78-13.55L101.78-13.55Q102.28-13.9 102.86-14.18 103.43-14.45 104.08-14.45L104.08-14.45Q104.88-14.45 105.56-14.03 106.23-13.6 106.78-13.05L106.78-13.05Q106.93-13.3 107.01-13.45 107.08-13.6 107.38-13.6L107.38-13.6Q107.58-13.6 108.31-13.45 109.03-13.3 109.68-13.1 110.33-12.9 110.33-12.7L110.33-12.7Q110.33-12.65 110.28-12.65L110.28-12.65Q109.93-12.15 109.53-11.65 109.13-11.15 108.73-10.65L108.73-10.65Q107.48-8.95 106.31-7.1 105.13-5.25 104.28-3.25L104.28-3.25Q104.18-2.95 104.08-2.63 103.98-2.3 103.98-1.95L103.98-1.95Q103.98-1.05 104.88-1.05L104.88-1.05Q105.58-1.05 106.58-1.8 107.58-2.55 108.66-3.65 109.73-4.75 110.68-5.88 111.63-7 112.28-7.75 112.93-8.5 113.03-8.5L113.03-8.5Q113.18-8.5 113.18-8.3L113.18-8.3Q113.18-8.2 112.43-7.33 111.68-6.45 110.63-5.3 109.58-4.15 108.73-3.23 107.88-2.3 107.63-2.05L107.63-2.05Q106.83-1.3 105.73-0.55 104.63 0.2 103.48 0.2ZM95.33-1.1L95.33-1.1Q95.73-1.1 96.16-1.33 96.58-1.55 96.88-1.7L96.88-1.7Q98.83-2.85 100.58-4.7 102.33-6.55 103.83-8.65 105.33-10.75 106.53-12.65L106.53-12.65Q106.43-12.7 106.18-12.7L106.18-12.7Q105.68-12.7 105.13-12.35L105.13-12.35Q102.28-10.9 99.71-8.43 97.13-5.95 95.43-3.15L95.43-3.15Q95.23-2.85 95.06-2.43 94.88-2 94.88-1.6L94.88-1.6Q94.88-1.1 95.33-1.1ZM128.23 0.15L128.23 0.15Q127.23 0.15 126.73-0.53 126.23-1.2 126.23-2.15L126.23-2.15Q126.23-3.45 126.83-5 127.43-6.55 128.18-8 128.93-9.45 129.53-10.48 130.13-11.5 130.13-11.8L130.13-11.8Q130.13-11.9 130.03-11.9L130.03-11.9Q129.88-11.9 129.68-11.78 129.48-11.65 129.38-11.55L129.38-11.55Q127.88-10.55 126.25-8.75 124.63-6.95 123.2-4.98 121.78-3 120.83-1.4L120.83-1.4Q120.28-0.45 119.55-0.23 118.83 0 117.83 0L117.83 0Q118.18-0.8 118.58-1.55 118.98-2.3 119.33-3L119.33-3Q119.93-4.2 120.43-5.38 120.93-6.55 121.43-7.75L121.43-7.75Q121.83-8.8 122.28-10.23 122.73-11.65 122.73-12.75L122.73-12.75Q122.73-13.05 122.68-13.35 122.63-13.65 122.48-13.9L122.48-13.9Q122.33-14.05 122.33-14.05L122.33-14.05Q122.33-14.35 122.68-14.35L122.68-14.35Q122.98-14.35 123.73-14 124.48-13.65 125.15-13.18 125.83-12.7 125.83-12.3L125.83-12.3Q125.83-11.55 125.25-10.15 124.68-8.75 123.95-7.43 123.23-6.1 122.73-5.45L122.73-5.45Q122.68-5.4 122.6-5.3 122.53-5.2 122.53-5.1L122.53-5.1 122.58-5.05Q122.68-5.05 123.38-5.93 124.08-6.8 125.15-8.1 126.23-9.4 127.53-10.73 128.83-12.05 130.13-12.93 131.43-13.8 132.53-13.8L132.53-13.8Q133.08-13.8 133.78-13.53 134.48-13.25 134.48-12.55L134.48-12.55Q134.48-12.35 134.38-12.18 134.28-12 134.18-11.8L134.18-11.8Q132.63-9.7 131.28-7.73 129.93-5.75 128.88-3.25L128.88-3.25Q128.78-2.95 128.65-2.63 128.53-2.3 128.53-1.95L128.53-1.95Q128.53-1.05 129.43-1.05L129.43-1.05Q130.18-1.05 131.18-1.8 132.18-2.55 133.25-3.65 134.33-4.75 135.28-5.88 136.23-7 136.88-7.75 137.53-8.5 137.63-8.5L137.63-8.5Q137.78-8.5 137.78-8.3L137.78-8.3Q137.78-8.25 137.35-7.73 136.93-7.2 136.48-6.7 136.03-6.2 135.88-6.05L135.88-6.05Q135.03-5.1 133.95-3.83 132.88-2.55 131.68-1.5 130.48-0.45 129.23 0L129.23 0Q128.78 0.15 128.23 0.15ZM153.07 0.2L153.07 0.2Q152.22 0.2 151.5-0.3 150.77-0.8 150.77-1.75L150.77-1.75Q150.77-2.35 151.1-3.3 151.42-4.25 151.87-5.18 152.32-6.1 152.57-6.65L152.57-6.65Q151.57-5.25 150.4-3.95 149.22-2.65 147.92-1.5L147.92-1.5Q147.42-1.15 146.6-0.5 145.77 0.15 145.12 0.15L145.12 0.15Q144.12 0.15 143.3-0.6 142.47-1.35 142.47-2.4L142.47-2.4Q142.47-3.1 142.77-3.7L142.77-3.7Q143.57-5.35 145-7.18 146.42-9 148.22-10.7 150.02-12.4 151.92-13.75 153.82-15.1 155.52-15.75L155.52-15.75Q155.82-15.85 156.02-15.85L156.02-15.85Q156.52-15.85 156.75-15.35 156.97-14.85 157.17-14.5L157.17-14.5Q158.12-15.95 159.07-17.35 160.02-18.75 160.97-20.15L160.97-20.15Q161.42-20.8 161.9-21.53 162.37-22.25 162.87-22.8L162.87-22.8Q162.92-22.9 163.02-22.88 163.12-22.85 163.17-22.85L163.17-22.85Q163.37-22.85 164.1-22.7 164.82-22.55 165.47-22.38 166.12-22.2 166.12-22L166.12-22Q166.12-21.95 166.07-21.9L166.07-21.9Q165.57-21.2 165.02-20.5 164.47-19.8 163.92-19.1L163.92-19.1Q162.27-16.85 160.7-14.5 159.12-12.15 157.57-9.75L157.57-9.75Q156.62-8.2 155.65-6.6 154.67-5 153.92-3.25L153.92-3.25Q153.57-2.55 153.57-1.95L153.57-1.95Q153.57-1.05 154.42-1.05L154.42-1.05Q155.17-1.05 156.17-1.8 157.17-2.55 158.25-3.65 159.32-4.75 160.27-5.88 161.22-7 161.85-7.75 162.47-8.5 162.62-8.5L162.62-8.5Q162.77-8.5 162.77-8.3L162.77-8.3Q162.77-8.2 162.02-7.33 161.27-6.45 160.22-5.3 159.17-4.15 158.32-3.23 157.47-2.3 157.22-2.05L157.22-2.05Q156.42-1.3 155.32-0.55 154.22 0.2 153.07 0.2ZM144.97-1.2L144.97-1.2Q145.37-1.2 145.87-1.43 146.37-1.65 146.67-1.85L146.67-1.85Q147.92-2.55 149.25-3.73 150.57-4.9 151.77-6.25 152.97-7.6 153.72-8.75L153.72-8.75Q154.42-9.8 155.05-10.93 155.67-12.05 156.32-13.1L156.32-13.1Q152.97-11.65 150.17-9.18 147.37-6.7 145.47-3.55L145.47-3.55Q145.27-3.2 144.95-2.58 144.62-1.95 144.62-1.55L144.62-1.55Q144.62-1.2 144.97-1.2ZM197.86 1.9L197.86 1.9Q195.66 1.9 193.29 1.35 190.91 0.8 189.26-0.75L189.26-0.75Q189.16-0.85 189.16-0.95L189.16-0.95Q189.16-1.15 189.41-1.15L189.41-1.15 189.61-1.1Q191.11-0.6 192.66-0.4 194.21-0.2 195.76-0.2L195.76-0.2Q197.41-0.2 199.61-0.73 201.81-1.25 203.89-2.3 205.96-3.35 207.31-4.9 208.66-6.45 208.66-8.5L208.66-8.5Q208.66-10.05 207.61-10.83 206.56-11.6 205.14-11.9 203.71-12.2 202.51-12.2L202.51-12.2Q201.21-12.2 199.46-11.93 197.71-11.65 196.11-11.03 194.51-10.4 193.61-9.35L193.61-9.35Q191.86-7.2 190.59-4.73 189.31-2.25 187.86 0.1L187.86 0.1Q187.66 0.6 187.26 0.6L187.26 0.6Q187.01 0.6 187.01 0.3L187.01 0.3Q187.01 0.1 187.06 0.05L187.06 0.05Q187.46-1.3 188.14-2.58 188.81-3.85 189.46-5.05L189.46-5.05Q189.71-5.5 190.44-6.73 191.16-7.95 192.16-9.63 193.16-11.3 194.29-13.08 195.41-14.85 196.41-16.4 197.41-17.95 198.14-18.9 198.86-19.85 199.06-19.85L199.06-19.85Q199.31-19.85 199.89-19.68 200.46-19.5 201.01-19.28 201.56-19.05 201.71-18.85L201.71-18.85Q200.21-17.15 198.71-15.48 197.21-13.8 195.76-12.1L195.76-12.1Q198.11-12.4 200.66-13.13 203.21-13.85 205.36-14.8L205.36-14.8Q206.11-15.15 207.16-15.78 208.21-16.4 209.26-17.23 210.31-18.05 211.01-18.95 211.71-19.85 211.71-20.8L211.71-20.8Q211.71-21.75 210.94-22.2 210.16-22.65 209.19-22.78 208.21-22.9 207.51-22.9L207.51-22.9Q204.71-22.9 202.06-22.18 199.41-21.45 196.76-20.6L196.76-20.6Q196.56-20.55 196.36-20.5 196.16-20.45 195.96-20.45L195.96-20.45Q195.36-20.45 195.06-20.85 194.76-21.25 194.76-21.8L194.76-21.8Q194.76-23.05 195.81-23.5L195.81-23.5Q196.16-23.65 196.54-23.73 196.91-23.8 197.26-23.85L197.26-23.85Q199.66-24.45 202.14-24.95 204.61-25.45 207.06-25.45L207.06-25.45Q208.41-25.45 210.04-25.13 211.66-24.8 212.84-23.9 214.01-23 214.01-21.25L214.01-21.25Q214.01-19.65 212.81-18.32 211.61-17 209.81-16 208.01-15 206.24-14.3 204.46-13.6 203.24-13.25 202.01-12.9 202.01-12.85L202.01-12.85 202.16-12.85Q202.56-12.85 202.99-12.88 203.41-12.9 203.81-12.9L203.81-12.9Q205.01-12.9 206.44-12.68 207.86-12.45 209.14-11.9 210.41-11.35 211.24-10.38 212.06-9.4 212.06-7.85L212.06-7.85Q212.06-6.8 211.66-5.83 211.26-4.85 210.66-4L210.66-4Q209.26-2 207.16-0.7 205.06 0.6 202.66 1.25 200.26 1.9 197.86 1.9ZM226.56 0.05L226.56 0.05Q225.16 0.05 223.86-0.65 222.56-1.35 222.56-2.95L222.56-2.95Q222.56-3.15 222.58-3.33 222.61-3.5 222.66-3.7L222.66-3.7Q223.06-5.4 224.13-7.05 225.21-8.7 226.73-10.15 228.26-11.6 229.93-12.73 231.61-13.85 233.16-14.45L233.16-14.45Q233.31-14.55 233.46-14.6 233.61-14.65 233.81-14.65L233.81-14.65Q234.26-14.65 234.56-14.18 234.86-13.7 235.01-13.1 235.16-12.5 235.16-12.15L235.16-12.15Q235.16-11.25 234.63-10.33 234.11-9.4 233.46-8.8L233.46-8.8Q233.76-8.8 234.06-8.78 234.36-8.75 234.66-8.75L234.66-8.75Q234.76-8.75 234.76-8.65L234.76-8.65Q234.76-8.6 234.66-8.55 234.56-8.5 234.46-8.45L234.46-8.45 232.96-8.3Q231.56-8.15 230.06-7.85 228.56-7.55 227.21-7.05L227.21-7.05Q226.56-6.15 225.91-4.8 225.26-3.45 225.26-2.3L225.26-2.3Q225.26-1.65 225.56-1.18 225.86-0.7 226.61-0.7L226.61-0.7Q227.06-0.7 227.53-0.88 228.01-1.05 228.41-1.25L228.41-1.25Q230.81-2.45 232.71-4.13 234.61-5.8 236.41-7.75L236.41-7.75Q236.51-7.85 236.56-7.85L236.56-7.85Q236.66-7.85 236.66-7.75L236.66-7.75Q236.66-7.6 236.56-7.43 236.46-7.25 236.36-7.15L236.36-7.15Q235.01-5.45 233.26-3.73 231.51-2 229.71-0.85L229.71-0.85Q228.31 0.05 226.56 0.05ZM228.46-8.55L228.46-8.55Q229.61-8.65 230.76-8.72 231.91-8.8 233.06-8.8L233.06-8.8Q233.36-9.2 233.58-9.88 233.81-10.55 233.81-11.05L233.81-11.05Q233.81-11.3 233.71-11.58 233.61-11.85 233.26-11.85L233.26-11.85 233.11-11.85Q232.51-11.65 231.58-11.05 230.66-10.45 229.81-9.75 228.96-9.05 228.46-8.55ZM253.1 0.2L253.1 0.2Q252.15 0.2 251.5-0.4 250.85-1 250.85-2L250.85-2Q250.85-3.05 251.43-4.38 252-5.7 252.45-6.6L252.45-6.6Q251.85-5.85 250.9-4.73 249.95-3.6 248.85-2.5 247.75-1.4 246.6-0.68 245.45 0.05 244.4 0.05L244.4 0.05Q243.3 0.05 242.83-0.75 242.35-1.55 242.35-2.5L242.35-2.5Q242.35-3.1 242.5-3.7L242.5-3.7Q242.85-5 243.85-6.43 244.85-7.85 246.18-9.18 247.5-10.5 248.9-11.65 250.3-12.8 251.4-13.55L251.4-13.55Q251.9-13.9 252.48-14.18 253.05-14.45 253.7-14.45L253.7-14.45Q254.5-14.45 255.18-14.03 255.85-13.6 256.4-13.05L256.4-13.05Q256.55-13.3 256.63-13.45 256.7-13.6 257-13.6L257-13.6Q257.2-13.6 257.93-13.45 258.65-13.3 259.3-13.1 259.95-12.9 259.95-12.7L259.95-12.7Q259.95-12.65 259.9-12.65L259.9-12.65Q259.55-12.15 259.15-11.65 258.75-11.15 258.35-10.65L258.35-10.65Q257.1-8.95 255.93-7.1 254.75-5.25 253.9-3.25L253.9-3.25Q253.8-2.95 253.7-2.63 253.6-2.3 253.6-1.95L253.6-1.95Q253.6-1.05 254.5-1.05L254.5-1.05Q255.2-1.05 256.2-1.8 257.2-2.55 258.28-3.65 259.35-4.75 260.3-5.88 261.25-7 261.9-7.75 262.55-8.5 262.65-8.5L262.65-8.5Q262.8-8.5 262.8-8.3L262.8-8.3Q262.8-8.2 262.05-7.33 261.3-6.45 260.25-5.3 259.2-4.15 258.35-3.23 257.5-2.3 257.25-2.05L257.25-2.05Q256.45-1.3 255.35-0.55 254.25 0.2 253.1 0.2ZM244.95-1.1L244.95-1.1Q245.35-1.1 245.78-1.33 246.2-1.55 246.5-1.7L246.5-1.7Q248.45-2.85 250.2-4.7 251.95-6.55 253.45-8.65 254.95-10.75 256.15-12.65L256.15-12.65Q256.05-12.7 255.8-12.7L255.8-12.7Q255.3-12.7 254.75-12.35L254.75-12.35Q251.9-10.9 249.33-8.43 246.75-5.95 245.05-3.15L245.05-3.15Q244.85-2.85 244.68-2.43 244.5-2 244.5-1.6L244.5-1.6Q244.5-1.1 244.95-1.1ZM270.5 0.2L270.5 0.2Q269.55 0.2 268.95-0.5 268.35-1.2 268.35-2.15L268.35-2.15Q268.35-3.7 269.02-5.38 269.7-7.05 270.62-8.6 271.55-10.15 272.22-11.35 272.9-12.55 272.9-13.05L272.9-13.05Q272.9-13.3 272.75-13.35L272.75-13.35Q273.65-13.75 274.45-13.75L274.45-13.75Q274.95-13.75 275.7-13.53 276.45-13.3 276.45-12.65L276.45-12.65Q276.45-12.45 276.35-12.28 276.25-12.1 276.15-11.95L276.15-11.95Q274.65-9.85 273.3-7.75 271.95-5.65 270.95-3.25L270.95-3.25Q270.85-2.95 270.72-2.6 270.6-2.25 270.6-1.9L270.6-1.9Q270.6-1.05 271.45-1.05L271.45-1.05Q272.2-1.05 273.2-2.13 274.2-3.2 275.25-4.83 276.3-6.45 277.32-8.22 278.35-10 279.17-11.43 280-12.85 280.45-13.5L280.45-13.5Q280.5-13.6 280.75-13.6L280.75-13.6Q280.95-13.6 281.67-13.45 282.4-13.3 283.05-13.1 283.7-12.9 283.7-12.7L283.7-12.7Q283.7-12.65 283.65-12.65L283.65-12.65Q283.3-12.15 282.9-11.65 282.5-11.15 282.1-10.65L282.1-10.65Q280.85-8.95 279.67-7.1 278.5-5.25 277.65-3.25L277.65-3.25Q277.55-2.95 277.45-2.63 277.35-2.3 277.35-1.95L277.35-1.95Q277.35-1.05 278.25-1.05L278.25-1.05Q279-1.05 280-1.8 281-2.55 282.05-3.65 283.1-4.75 284.05-5.88 285-7 285.65-7.75 286.3-8.5 286.4-8.5L286.4-8.5Q286.6-8.5 286.6-8.3L286.6-8.3Q286.6-8.25 286.17-7.73 285.75-7.2 285.27-6.7 284.8-6.2 284.7-6.05L284.7-6.05Q283.8-5 282.5-3.55 281.2-2.1 279.72-0.98 278.25 0.15 276.75 0.15L276.75 0.15Q274.7 0.15 274.7-1.95L274.7-1.95Q274.7-2.8 275-3.55L275-3.55Q274.55-2.85 273.85-1.98 273.15-1.1 272.3-0.45 271.45 0.2 270.5 0.2ZM294.39 0.2L294.39 0.2Q293.49 0.2 292.82-0.33 292.14-0.85 292.14-1.8L292.14-1.8Q292.14-2.65 292.77-4.1 293.39-5.55 294.27-7.2 295.14-8.85 295.99-10.25 296.84-11.65 297.34-12.45L297.34-12.45 295.39-12.45 295.69-12.95 297.64-12.95Q298.34-14.1 299.02-15.25 299.69-16.4 300.49-17.5L300.49-17.5Q300.94-18.15 301.47-18.73 301.99-19.3 302.84-19.3L302.84-19.3Q303.14-19.3 303.84-19.13 304.54-18.95 305.17-18.7 305.79-18.45 305.84-18.15L305.84-18.15Q305.09-17.9 304.12-16.88 303.14-15.85 302.29-14.73 301.44-13.6 300.99-12.95L300.99-12.95 303.29-12.95 302.99-12.45 300.64-12.45Q300.14-11.8 299.17-10.38 298.19-8.95 297.14-7.3 296.09-5.65 295.37-4.23 294.64-2.8 294.64-2.05L294.64-2.05Q294.64-1.05 295.74-1.05L295.74-1.05Q296.49-1.05 297.49-1.8 298.49-2.55 299.54-3.65 300.59-4.75 301.54-5.88 302.49-7 303.14-7.75 303.79-8.5 303.89-8.5L303.89-8.5Q304.04-8.5 304.04-8.3L304.04-8.3Q304.04-8.25 303.62-7.73 303.19-7.2 302.74-6.7 302.29-6.2 302.14-6.05L302.14-6.05Q301.49-5.3 300.62-4.25 299.74-3.2 298.69-2.18 297.64-1.15 296.54-0.48 295.44 0.2 294.39 0.2ZM307.99 7.9L307.99 7.9Q307.04 7.9 306.19 7.48 305.34 7.05 304.99 6.05L304.99 6.05 305.44 5.95Q305.64 6.65 306.16 6.93 306.69 7.2 307.34 7.2L307.34 7.2Q308.59 7.2 309.59 6.65L309.59 6.65Q311.14 5.9 312.64 4.1 314.14 2.3 315.51 0.03 316.89-2.25 318.01-4.42 319.14-6.6 319.89-8.1L319.89-8.1Q319.49-7.5 318.61-6.3 317.74-5.1 316.69-3.73 315.64-2.35 314.66-1.33 313.69-0.3 313.09-0.05L313.09-0.05Q312.49 0.2 312.09 0.2L312.09 0.2Q311.14 0.2 310.54-0.5 309.94-1.2 309.94-2.15L309.94-2.15Q309.94-3.65 310.61-5.35 311.29-7.05 312.21-8.6 313.14-10.15 313.81-11.35 314.49-12.55 314.49-13.05L314.49-13.05Q314.49-13.3 314.34-13.35L314.34-13.35Q315.24-13.75 315.99-13.75L315.99-13.75Q316.49-13.75 317.26-13.53 318.04-13.3 318.04-12.65L318.04-12.65Q318.04-12.45 317.94-12.28 317.84-12.1 317.74-11.95L317.74-11.95Q316.29-9.9 314.91-7.78 313.54-5.65 312.54-3.25L312.54-3.25Q312.44-2.95 312.31-2.63 312.19-2.3 312.19-1.9L312.19-1.9Q312.19-1.05 313.04-1.05L313.04-1.05Q313.59-1.05 314.51-1.98 315.44-2.9 316.54-4.35 317.64-5.8 318.69-7.35 319.74-8.9 320.56-10.2 321.39-11.5 321.74-12.05L321.74-12.05Q321.99-12.5 322.51-13.28 323.04-14.05 323.66-14.7 324.29-15.35 324.84-15.35L324.84-15.35Q325.29-15.35 325.64-14.98 325.99-14.6 325.99-14.2L325.99-14.2Q325.99-13.6 325.39-13.6L325.39-13.6Q324.14-13.6 323.34-13 322.54-12.4 321.99-11.25L321.99-11.25Q320.99-9 320.29-6.43 319.59-3.85 318.79-1.3 317.99 1.25 316.74 3.33 315.49 5.4 313.39 6.65 311.29 7.9 307.99 7.9Z" opacity="1" transform="matrix(1,0,0,1,0,0)" fill="#5a5353" class="slogan-text-1" data-fill-palette-color="secondary" id="text-1"></path></svg></g></svg></g></svg></g></svg></g></svg></g></svg></g></svg></g><g><path d="M245.816 0c68.262 0 123.6 55.338 123.6 123.6 0 68.262-55.338 123.6-123.6 123.6-53.394 0-98.881-33.857-116.163-81.273h1.946c17.197 46.388 61.846 79.447 114.217 79.447 67.254 0 121.774-54.52 121.773-121.774 0-67.254-54.52-121.774-121.773-121.774-52.37 0-97.019 33.059-114.217 79.448l-1.946 0c17.282-47.417 62.768-81.273 116.163-81.274z" fill="#5a5353" stroke="transparent" data-fill-palette-color="tertiary"></path></g></svg></g><defs></defs></svg><rect width="395.52" height="247.2" fill="none" stroke="none" visibility="hidden"></rect></g></svg></g></svg>